<svg width="404" height="60" viewBox="0 0 404 60" fill="none" xmlns="http://www.w3.org/2000/svg">
<line y1="29.5" x2="152" y2="29.5" stroke="#262626"/>
<path d="M178.777 28.5883L178.776 28.5911C177.595 32.0841 177 35.4598 177 38.7158V47.8238C177 49.2045 178.12 50.3238 179.5 50.3238H190.769C192.15 50.3238 193.269 49.2045 193.269 47.8238L193.269 38.6069L193.269 38.6027C193.234 34.4487 193.897 30.6661 195.248 27.2484C196.41 24.3556 197.8 21.5615 199.419 18.8658C200.114 17.7087 199.81 16.1863 198.67 15.4264L192.643 11.4104C191.728 10.8006 190.498 10.8491 189.665 11.6089C187.494 13.5883 185.51 15.9257 183.712 18.6179L183.711 18.6189C181.638 21.7397 179.993 25.0631 178.777 28.5883ZM205.657 28.5883L205.656 28.5911C204.475 32.0841 203.88 35.4598 203.88 38.7158V47.8238C203.88 49.2045 204.999 50.3238 206.38 50.3238H217.649C219.03 50.3238 220.149 49.2045 220.149 47.8238L220.149 38.6069L220.149 38.6027C220.114 34.4489 220.776 30.6664 222.128 27.2488C223.289 24.3559 224.68 21.5616 226.299 18.8658C226.994 17.7087 226.69 16.1863 225.549 15.4264L219.523 11.4104C218.607 10.8006 217.378 10.8491 216.545 11.6089C214.374 13.5883 212.39 15.9257 210.591 18.6179L210.591 18.6189C208.517 21.7397 206.873 25.0631 205.657 28.5883Z" fill="url(#paint0_linear_11_89086)" stroke="#CAFF33"/>
<line x1="252" y1="29.5" x2="404" y2="29.5" stroke="#262626"/>
<defs>
<linearGradient id="paint0_linear_11_89086" x1="202.206" y1="11.0002" x2="202.206" y2="49.8238" gradientUnits="userSpaceOnUse">
<stop stop-color="#CAFF33"/>
<stop offset="1" stop-color="#191919"/>
</linearGradient>
</defs>
</svg>
